<svg viewBox="0 0 142.1 101.9" xmlns="http://www.w3.org/2000/svg">
  <path
    d="M35.3 80.2 38.9 12h10.7L65 52.6q1.3 3.5 2.4 6.45a314.98 314.98 0 0 1 .905 2.457q.545 1.499.995 2.793 1 2.6 1.7 4.8h.2q.6-2.2 1.5-4.8a574.53 574.53 0 0 0 .738-2.137q.375-1.09.785-2.296a961.97 961.97 0 0 0 .277-.817q1-2.95 2.4-6.45L92.6 12h10.7l3.5 68.2h-8.5l-1.7-37.5a1038.6 1038.6 0 0 1-.136-3.464q-.101-2.711-.164-4.836-.1-3.4-.1-5.6v-4.2H96a51.594 51.594 0 0 0-.319.819q-.348.915-.776 2.123A170.8 170.8 0 0 0 94.5 28.7q-.716 1.968-1.791 4.936a9329.4 9329.4 0 0 0-.259.714q-.859 2.372-1.979 5.429A2900.8 2900.8 0 0 1 89.4 42.7L75.3 80.2h-8.5L52.6 42.7a291.9 291.9 0 0 1-1.327-3.41q-1.023-2.684-1.773-4.84-1.073-3.086-1.827-5.172a233.19 233.19 0 0 0-.173-.478q-.9-2.6-1.4-4.2h-.2q.089 1.431.179 3.663a331.3 331.3 0 0 1 .021.537q.081 3.413-.168 10.456A585.54 585.54 0 0 1 45.8 42.7l-2 37.5h-8.5zm80.7 21.7-1.4-7a28.058 28.058 0 0 0 3.878-1.195A24.043 24.043 0 0 0 120.1 93a16.274 16.274 0 0 0 3.085-2.217 18.656 18.656 0 0 0 .665-.633q1.75-1.75 1.75-4.45a104.17 104.17 0 0 0-.268-7.366 114.47 114.47 0 0 0-.082-1.084 95.501 95.501 0 0 1-.213-3.537q-.069-1.588-.103-3.366a195.36 195.36 0 0 1-.034-3.747 33.849 33.849 0 0 1 .226-4.035q.403-3.349 1.524-5.815 1.75-3.85 6.55-5.25a9.81 9.81 0 0 1-4.125-2.27 10.184 10.184 0 0 1-2.375-3.48 21.832 21.832 0 0 1-1.456-5.179q-.391-2.466-.344-5.271a189.42 189.42 0 0 1 .049-4.451q.041-1.74.116-3.29a91.936 91.936 0 0 1 .185-2.909 106.64 106.64 0 0 0 .345-7.421 97.163 97.163 0 0 0 .005-1.029q0-2.6-1.65-4.4t-3.85-2.9a25.52 25.52 0 0 0-3.852-1.467A30.056 30.056 0 0 0 114.6 7l1.4-7a50.982 50.982 0 0 1 2.551.687q1.337.395 2.803.896a83.64 83.64 0 0 1 .196.067q3.05 1.05 5.7 2.75t4.45 4.2a9.557 9.557 0 0 1 1.756 4.859 12.101 12.101 0 0 1 .044 1.041q0 2.836-.074 5.118a107.05 107.05 0 0 1-.026.732q-.1 2.55-.25 4.8t-.25 4.5-.1 5.05q0 3.59.696 5.738a9.343 9.343 0 0 0 .004.012 10.55 10.55 0 0 0 .78 1.826 7.865 7.865 0 0 0 1.22 1.674q1.3 1.35 2.95 2.15t3.65 1.6v7.5a38.144 38.144 0 0 0-1.751.754 48.633 48.633 0 0 0-1.449.696 12.107 12.107 0 0 0-2.99 2.09 11.33 11.33 0 0 0-.01.01 8.761 8.761 0 0 0-1.268 1.554q-.51.785-.932 1.746-.741 1.688-.872 4.089a19.518 19.518 0 0 0-.028 1.061q0 2.8.1 5.05t.25 4.5.25 4.8q.086 2.191.098 4.937a207.51 207.51 0 0 1 .002.913q0 3.4-1.8 5.9t-4.45 4.2-5.7 2.8q-2.782 1.003-5.106 1.507a27.988 27.988 0 0 1-.444.093zM0 55.2v-7.5a35.859 35.859 0 0 0 3.172-1.34 32.672 32.672 0 0 0 .428-.21q1.7-.85 3-2.2a7.979 7.979 0 0 0 1.332-1.885A10.767 10.767 0 0 0 8.6 40.45a11.927 11.927 0 0 0 .399-1.649Q9.3 37.063 9.3 34.7q0-2.8-.1-5.05t-.25-4.5-.25-4.8q-.086-2.191-.098-4.937A207.51 207.51 0 0 1 8.6 14.5q0-3.4 1.8-5.9t4.45-4.2 5.7-2.75Q23.397.67 25.766.082A43.821 43.821 0 0 1 26.1 0l1.4 7a26.112 26.112 0 0 0-2.815.795A19.204 19.204 0 0 0 22.1 8.9q-2.2 1.1-3.9 2.9a6.162 6.162 0 0 0-1.7 4.359 7.937 7.937 0 0 0 0 .041 104.17 104.17 0 0 0 .268 7.366 114.47 114.47 0 0 0 .082 1.084 95.501 95.501 0 0 1 .213 3.537q.069 1.588.103 3.366A195.36 195.36 0 0 1 17.2 35.3q.095 5.7-1.525 9.911a18.816 18.816 0 0 1-.175.439Q13.7 50 8.9 51.5a12.476 12.476 0 0 1 3.027 1.305 8.821 8.821 0 0 1 3.523 3.945 17.476 17.476 0 0 1 1.133 3.483q.617 2.805.617 6.367a189.42 189.42 0 0 1-.049 4.451q-.041 1.74-.116 3.29a91.936 91.936 0 0 1-.185 2.909 106.64 106.64 0 0 0-.345 7.421A97.163 97.163 0 0 0 16.5 85.7a7.607 7.607 0 0 0 .384 2.181 6.17 6.17 0 0 0 1.366 2.269Q19.9 91.9 22 93q2.4 1.2 5.5 1.9l-1.4 7a50.982 50.982 0 0 1-2.551-.687q-1.337-.395-2.803-.896a83.64 83.64 0 0 1-.196-.067q-3.05-1.05-5.75-2.8t-4.45-4.2a9.369 9.369 0 0 1-1.666-4.408A12.106 12.106 0 0 1 8.6 87.4q0-2.836.074-5.118a107.05 107.05 0 0 1 .026-.732q.1-2.55.25-4.8t.25-4.5.1-5.05a17.627 17.627 0 0 0-.127-2.177q-.21-1.692-.773-2.973Q7.5 60 6.15 58.7t-3-2.1T0 55.2z"
    fill="#FF5733" vector-effect="non-scaling-stroke" fill-rule="evenodd" stroke-linecap="round"
    stroke-width=".25mm"/>
</svg>
